<mxfile host="Electron" modified="2023-08-03T14:54:08.909Z" agent="Mozilla/5.0 (Windows NT 10.0; Win64; x64) AppleWebKit/537.36 (KHTML, like Gecko) draw.io/21.6.5 Chrome/114.0.5735.243 Electron/25.3.1 Safari/537.36" etag="nhJepMels1bo4mODjhaI" version="21.6.5" type="device">
  <diagram name="Page-1" id="xX3t6Kk7A5DxHuQYttOL">
    <mxGraphModel dx="880" dy="511" grid="1" gridSize="10" guides="1" tooltips="1" connect="1" arrows="1" fold="1" page="1" pageScale="1" pageWidth="1169" pageHeight="827" math="0" shadow="0">
      <root>
        <mxCell id="0" />
        <mxCell id="1" parent="0" />
        <mxCell id="O0xKTx6wMoIKH6UijAdP-1" value="«component»&lt;br&gt;&lt;b&gt;Order&lt;br&gt;&lt;/b&gt;" style="html=1;dropTarget=0;whiteSpace=wrap;labelBackgroundColor=none;" parent="1" vertex="1">
          <mxGeometry x="240" y="40" width="180" height="90" as="geometry" />
        </mxCell>
        <mxCell id="O0xKTx6wMoIKH6UijAdP-2" value="" style="shape=module;jettyWidth=8;jettyHeight=4;labelBackgroundColor=none;" parent="O0xKTx6wMoIKH6UijAdP-1" vertex="1">
          <mxGeometry x="1" width="20" height="20" relative="1" as="geometry">
            <mxPoint x="-27" y="7" as="offset" />
          </mxGeometry>
        </mxCell>
        <mxCell id="O0xKTx6wMoIKH6UijAdP-3" value="«component»&lt;br&gt;&lt;b&gt;Order&lt;br&gt;&lt;/b&gt;" style="html=1;dropTarget=0;whiteSpace=wrap;labelBackgroundColor=none;" parent="1" vertex="1">
          <mxGeometry x="240" y="160" width="180" height="90" as="geometry" />
        </mxCell>
        <mxCell id="O0xKTx6wMoIKH6UijAdP-4" value="" style="shape=module;jettyWidth=8;jettyHeight=4;labelBackgroundColor=none;" parent="O0xKTx6wMoIKH6UijAdP-3" vertex="1">
          <mxGeometry x="1" width="20" height="20" relative="1" as="geometry">
            <mxPoint x="-27" y="7" as="offset" />
          </mxGeometry>
        </mxCell>
        <mxCell id="O0xKTx6wMoIKH6UijAdP-5" value="" style="html=1;rounded=0;labelBackgroundColor=none;" parent="1" vertex="1">
          <mxGeometry x="235" y="58" width="10" height="10" as="geometry" />
        </mxCell>
        <mxCell id="O0xKTx6wMoIKH6UijAdP-6" value="" style="endArrow=none;html=1;rounded=0;align=center;verticalAlign=top;endFill=0;labelBackgroundColor=none;endSize=2;" parent="1" source="O0xKTx6wMoIKH6UijAdP-5" target="O0xKTx6wMoIKH6UijAdP-7" edge="1">
          <mxGeometry relative="1" as="geometry" />
        </mxCell>
        <mxCell id="O0xKTx6wMoIKH6UijAdP-7" value="OrderEntry" style="ellipse;html=1;fontSize=11;align=center;fillColor=none;points=[];aspect=fixed;resizable=0;verticalAlign=bottom;labelPosition=center;verticalLabelPosition=top;flipH=1;labelBackgroundColor=none;" parent="1" vertex="1">
          <mxGeometry x="175" y="60" width="8" height="8" as="geometry" />
        </mxCell>
        <mxCell id="O0xKTx6wMoIKH6UijAdP-8" value="" style="html=1;rounded=0;labelBackgroundColor=none;" parent="1" vertex="1">
          <mxGeometry x="235" y="200" width="10" height="10" as="geometry" />
        </mxCell>
        <mxCell id="O0xKTx6wMoIKH6UijAdP-9" value="" style="endArrow=none;html=1;rounded=0;align=center;verticalAlign=top;endFill=0;labelBackgroundColor=none;endSize=2;" parent="1" source="O0xKTx6wMoIKH6UijAdP-8" target="O0xKTx6wMoIKH6UijAdP-10" edge="1">
          <mxGeometry relative="1" as="geometry" />
        </mxCell>
        <mxCell id="O0xKTx6wMoIKH6UijAdP-10" value="OrderableItem" style="ellipse;html=1;fontSize=11;align=center;fillColor=none;points=[];aspect=fixed;resizable=0;verticalAlign=bottom;labelPosition=center;verticalLabelPosition=top;flipH=1;labelBackgroundColor=none;" parent="1" vertex="1">
          <mxGeometry x="175" y="202" width="8" height="8" as="geometry" />
        </mxCell>
        <mxCell id="O0xKTx6wMoIKH6UijAdP-11" value="" style="html=1;rounded=0;direction=south;labelBackgroundColor=none;" parent="1" vertex="1">
          <mxGeometry x="235" y="100" width="10" height="10" as="geometry" />
        </mxCell>
        <mxCell id="O0xKTx6wMoIKH6UijAdP-12" value="" style="endArrow=none;html=1;rounded=0;align=center;verticalAlign=top;endFill=0;labelBackgroundColor=none;endSize=2;" parent="1" source="O0xKTx6wMoIKH6UijAdP-13" target="O0xKTx6wMoIKH6UijAdP-11" edge="1">
          <mxGeometry relative="1" as="geometry" />
        </mxCell>
        <mxCell id="O0xKTx6wMoIKH6UijAdP-13" value="OrderableItem" style="shape=requiredInterface;html=1;fontSize=11;align=center;fillColor=none;points=[];aspect=fixed;resizable=0;verticalAlign=bottom;labelPosition=center;verticalLabelPosition=top;flipH=1;direction=west;labelBackgroundColor=none;" parent="1" vertex="1">
          <mxGeometry x="178" y="100" width="5" height="10" as="geometry" />
        </mxCell>
        <mxCell id="O0xKTx6wMoIKH6UijAdP-14" value="«component»&lt;br&gt;&lt;b&gt;Order&lt;br&gt;&lt;/b&gt;" style="html=1;dropTarget=0;whiteSpace=wrap;labelBackgroundColor=none;" parent="1" vertex="1">
          <mxGeometry x="534" y="40" width="180" height="90" as="geometry" />
        </mxCell>
        <mxCell id="O0xKTx6wMoIKH6UijAdP-15" value="" style="shape=module;jettyWidth=8;jettyHeight=4;labelBackgroundColor=none;" parent="O0xKTx6wMoIKH6UijAdP-14" vertex="1">
          <mxGeometry x="1" width="20" height="20" relative="1" as="geometry">
            <mxPoint x="-27" y="7" as="offset" />
          </mxGeometry>
        </mxCell>
        <mxCell id="O0xKTx6wMoIKH6UijAdP-16" value="«component»&lt;br&gt;&lt;b&gt;Order&lt;br&gt;&lt;/b&gt;" style="html=1;dropTarget=0;whiteSpace=wrap;labelBackgroundColor=none;" parent="1" vertex="1">
          <mxGeometry x="535" y="253" width="180" height="90" as="geometry" />
        </mxCell>
        <mxCell id="O0xKTx6wMoIKH6UijAdP-17" value="" style="shape=module;jettyWidth=8;jettyHeight=4;labelBackgroundColor=none;" parent="O0xKTx6wMoIKH6UijAdP-16" vertex="1">
          <mxGeometry x="1" width="20" height="20" relative="1" as="geometry">
            <mxPoint x="-27" y="7" as="offset" />
          </mxGeometry>
        </mxCell>
        <mxCell id="O0xKTx6wMoIKH6UijAdP-18" value="" style="html=1;rounded=0;labelBackgroundColor=none;" parent="1" vertex="1">
          <mxGeometry x="529" y="58" width="10" height="10" as="geometry" />
        </mxCell>
        <mxCell id="O0xKTx6wMoIKH6UijAdP-19" value="" style="endArrow=none;html=1;rounded=0;align=center;verticalAlign=top;endFill=0;labelBackgroundColor=none;endSize=2;" parent="1" source="O0xKTx6wMoIKH6UijAdP-18" target="O0xKTx6wMoIKH6UijAdP-20" edge="1">
          <mxGeometry relative="1" as="geometry" />
        </mxCell>
        <mxCell id="O0xKTx6wMoIKH6UijAdP-20" value="OrderEntry" style="ellipse;html=1;fontSize=11;align=center;fillColor=none;points=[];aspect=fixed;resizable=0;verticalAlign=bottom;labelPosition=center;verticalLabelPosition=top;flipH=1;labelBackgroundColor=none;" parent="1" vertex="1">
          <mxGeometry x="469" y="60" width="8" height="8" as="geometry" />
        </mxCell>
        <mxCell id="O0xKTx6wMoIKH6UijAdP-21" value="" style="html=1;rounded=0;labelBackgroundColor=none;" parent="1" vertex="1">
          <mxGeometry x="619" y="249" width="10" height="10" as="geometry" />
        </mxCell>
        <mxCell id="O0xKTx6wMoIKH6UijAdP-22" value="" style="endArrow=none;html=1;rounded=0;align=center;verticalAlign=top;endFill=0;labelBackgroundColor=none;endSize=2;" parent="1" source="O0xKTx6wMoIKH6UijAdP-23" edge="1">
          <mxGeometry relative="1" as="geometry">
            <mxPoint x="624" y="189" as="targetPoint" />
          </mxGeometry>
        </mxCell>
        <mxCell id="O0xKTx6wMoIKH6UijAdP-27" value="" style="group;rotation=90;labelBackgroundColor=none;" parent="1" vertex="1" connectable="0">
          <mxGeometry x="550" y="200" width="79" height="10" as="geometry" />
        </mxCell>
        <mxCell id="O0xKTx6wMoIKH6UijAdP-24" value="" style="html=1;rounded=0;direction=south;labelBackgroundColor=none;" parent="O0xKTx6wMoIKH6UijAdP-27" vertex="1">
          <mxGeometry x="69" y="-76" width="10" height="10" as="geometry" />
        </mxCell>
        <mxCell id="O0xKTx6wMoIKH6UijAdP-25" value="" style="endArrow=none;html=1;rounded=0;align=center;verticalAlign=top;endFill=0;labelBackgroundColor=none;endSize=2;" parent="O0xKTx6wMoIKH6UijAdP-27" target="O0xKTx6wMoIKH6UijAdP-24" edge="1">
          <mxGeometry relative="1" as="geometry">
            <mxPoint x="74" y="-16" as="sourcePoint" />
          </mxGeometry>
        </mxCell>
        <mxCell id="O0xKTx6wMoIKH6UijAdP-29" value="OrderableItem" style="edgeLabel;html=1;align=center;verticalAlign=middle;resizable=0;points=[];labelBackgroundColor=none;" parent="O0xKTx6wMoIKH6UijAdP-25" vertex="1" connectable="0">
          <mxGeometry x="-0.088" relative="1" as="geometry">
            <mxPoint x="-40" as="offset" />
          </mxGeometry>
        </mxCell>
        <mxCell id="O0xKTx6wMoIKH6UijAdP-26" value="" style="shape=requiredInterface;html=1;fontSize=11;align=center;fillColor=none;points=[];aspect=fixed;resizable=0;verticalAlign=bottom;labelPosition=center;verticalLabelPosition=top;flipH=1;direction=north;labelBackgroundColor=none;" parent="1" vertex="1">
          <mxGeometry x="619" y="184" width="10" height="5" as="geometry" />
        </mxCell>
        <mxCell id="O0xKTx6wMoIKH6UijAdP-28" value="" style="endArrow=none;html=1;rounded=0;align=center;verticalAlign=top;endFill=0;labelBackgroundColor=none;endSize=2;" parent="1" source="O0xKTx6wMoIKH6UijAdP-21" target="O0xKTx6wMoIKH6UijAdP-23" edge="1">
          <mxGeometry relative="1" as="geometry">
            <mxPoint x="624" y="249" as="sourcePoint" />
            <mxPoint x="624" y="189" as="targetPoint" />
          </mxGeometry>
        </mxCell>
        <mxCell id="O0xKTx6wMoIKH6UijAdP-30" value="OrderableItem" style="edgeLabel;html=1;align=center;verticalAlign=middle;resizable=0;points=[];labelBackgroundColor=none;" parent="O0xKTx6wMoIKH6UijAdP-28" vertex="1" connectable="0">
          <mxGeometry x="-0.2231" relative="1" as="geometry">
            <mxPoint x="-41" y="-6" as="offset" />
          </mxGeometry>
        </mxCell>
        <mxCell id="O0xKTx6wMoIKH6UijAdP-23" value="" style="ellipse;html=1;fontSize=11;align=center;fillColor=none;points=[];aspect=fixed;resizable=0;verticalAlign=bottom;labelPosition=center;verticalLabelPosition=top;flipH=1;labelBackgroundColor=none;" parent="1" vertex="1">
          <mxGeometry x="620" y="189" width="8" height="8" as="geometry" />
        </mxCell>
        <mxCell id="O0xKTx6wMoIKH6UijAdP-31" value="&lt;div&gt;Figure 11.8 An assembly Connector maps a simple Port of a Component to a matching simple Port of another&lt;/div&gt;&lt;div style=&quot;text-align: left;&quot;&gt;Component.&lt;/div&gt;" style="text;html=1;align=center;verticalAlign=middle;resizable=0;points=[];autosize=1;strokeColor=none;fillColor=none;labelBackgroundColor=none;" parent="1" vertex="1">
          <mxGeometry x="160" y="360" width="600" height="40" as="geometry" />
        </mxCell>
      </root>
    </mxGraphModel>
  </diagram>
</mxfile>
